<svg id="Layer_1" data-name="Layer 1" xmlns="http://www.w3.org/2000/svg" viewBox="0 0 1080 796"><defs><style>.cls-1{fill:#e43f15;}.cls-2{fill:#fefefe;}.cls-3{fill:#fbfbfb;}.cls-4{fill:#fcfcfc;}.cls-5{fill:#fafafa;}.cls-6{fill:#f9f9f9;}.cls-7{fill:#f7f7f8;}</style></defs><path class="cls-1" d="M237.19,293.85v-48.4h5.25c38.95,0,77.9-.37,116.84.11,32.64.41,63.38,7.89,89.73,28.42,25.67,20,38.64,46.92,41.56,78.9,2.1,23.09-.78,45.54-11,66.59-15.14,31.14-40.81,49.51-73.26,59.35-16.26,4.93-33,6.92-49.91,7-31.1.16-62.19.05-93.68-.4-.39-64-.39-127.52-.39-191.57H237.19m92.42,150.59q29-8.44,57.91-16.89c5.44-1.6,7.16-3.93,7.28-9.56.13-6.66.41-13.31.39-20-.1-24.73,0-49.46-.66-74.18a46.08,46.08,0,0,0-4.6-17.85c-13.18-28-46.8-32.36-66.31-8.87-8.06,9.7-10.61,21.25-10.61,33.57q0,56.88-.11,113.76c0,1.4.14,2.8.25,4.69C318.73,447.57,323.83,446.13,329.61,444.44Z"/><path class="cls-2" d="M236.78,293.91c8.65-.06,16.89-.06,25.53-.06,0,64,0,127.59,0,191.52-21.44.4-42.86.4-64.72.4V342.88H164.78V294C188.61,294,212.49,294,236.78,293.91Z"/><path class="cls-3" d="M614.34,474.31H608V430.07c6,.95,12.25-1.77,18.09,1.95,3.86-.74,8.46-2.54,12.88-2.21,4.24.33,8.31,2.88,13.18,4.72,3.57-3.7,9.28-5.55,15.81-4.92,8,.78,14,5.69,14.49,13.69.69,10.13.17,20.34.17,30.77H664.88c0-6.31,0-12.75,0-19.18,0-1.92.35-4.11-.44-5.69s-2.93-4-4.3-3.91a6.73,6.73,0,0,0-4.86,3.84c-.95,3.17-.78,6.71-.86,10.1-.11,4.87,0,9.75,0,14.85H636.29c0-6.48,0-13.06,0-19.64,0-1.9.19-4.05-.59-5.64s-2.64-3.51-4.08-3.56a6,6,0,0,0-4.66,3c-1,2.34-.91,5.18-1,7.82-.11,5.91,0,11.82,0,18.24Z"/><path class="cls-4" d="M524.52,474.31h-8.06V417.45c12.59.59,25.23.11,37.49,2,14.23,2.23,22.15,13.58,21.62,27.65s-9.65,24.61-24,26.28c-8.79,1-17.73.65-27,.9m30.11-21c2.69-5.69,2.8-11.39-1.46-16.2-4.79-5.42-11.38-4.31-17.68-4.09v26.26C542.46,459.27,549.49,460.56,554.63,453.27Z"/><path class="cls-3" d="M597,349.25c3.75-.72,4,1.47,3.88,2.92,4.91-1.25,9.89-3.4,15-3.64,11.73-.54,19.91,6.93,20.46,18.62.52,10.75.11,21.54.11,32.55H615.53c0-6.24,0-12.52,0-18.8,0-2.95-.13-5.91-.33-8.86-.22-3.15-1.93-5.94-5-5.63-2.53.25-5.29,2.1-7.14,4-1.18,1.23-1.14,3.88-1.17,5.9-.13,7.69-.05,15.37-.05,23.49h-21V349.25Z"/><path class="cls-4" d="M566.74,393.19c-10.5,9-26.17,10.67-38,4.27a25.35,25.35,0,0,1-13-27.29,25.76,25.76,0,0,1,23-20.88,47.48,47.48,0,0,1,15.78.79c20,4.84,26.52,27.87,12.26,43.11M546,384.67c7.11-2.38,9.54-11.9,4.41-17.24a7.76,7.76,0,0,0-10.14-.74c-3,2.23-4.38,7.34-3.05,11.79C538.36,382.42,540.86,384.82,546,384.67Z"/><path class="cls-4" d="M674.72,385.08c3.89-.94,7.39-1.89,11.44-3l9.78,10.76c-2.31,3.39-6.44,5.29-10.84,6.49a40,40,0,0,1-23.17-.49c-11.54-3.73-18.58-13.36-18.37-24.9s7.83-21.44,19.48-24.58a33.53,33.53,0,0,1,22.59,1.47,24.62,24.62,0,0,1,13.9,28.52H665.26c1.84,4.63,5.4,5.26,9.46,5.71m1.74-21.62c-6.47-2-10.15-.29-11.32,5.34h16.19C679.43,366.6,678.23,365.21,676.46,363.46Z"/><path class="cls-3" d="M943.27,461.11v13H925.48v-44c4.87,0,9.72-.14,14.56.1,1.09.06,2.12,1.46,3,2.12,4.17-.89,8.63-2.55,13.14-2.68,9.53-.27,16.28,5.6,16.9,15.11.64,9.69.14,19.47.14,29.33H955.09c0-7.54.06-14.9,0-22.26,0-3-.28-6.22-4.17-6.79-3.54-.52-6.32.94-6.92,4.59S943.48,457,943.27,461.11Z"/><path class="cls-3" d="M743.84,445.12V430.33h16.73l.69,2c4.78-1,9.16-2.58,13.57-2.7,9.55-.25,15.81,5.6,17,15.08a51.18,51.18,0,0,1,.28,6.2c0,7.67,0,15.35,0,23.18H773.74c0-7.82.21-15.48-.15-23.12-.1-2-1.63-4.88-3.24-5.54s-5,.2-6.22,1.59c-1.48,1.63-2,4.53-2.1,6.92-.3,5.16-.09,10.35-.09,15.53v4.59h-18.1Z"/><path class="cls-3" d="M868.58,450.65c2.1-13,10-20.13,22.78-21.09,13.36-1,23.85,5.13,27.18,15.86s-1.1,21.6-11.24,26.52a29.06,29.06,0,0,1-27.3-.41c-8.06-4.25-11.67-11.39-11.42-20.88m24.64,9.9c3.56.32,6-1.22,7.18-4.54,1.31-3.72,1.06-7.35-1.67-10.35-2.54-2.8-7.35-2.43-9.8.53C885.1,450.78,887,458,893.22,460.55Z"/><path class="cls-5" d="M718,461.23c2.7-.82,5-1.63,7.66-2.54l9.15,9.78-2.32,1.76c-10.19,7.73-29.46,5.88-38-3.65-7.59-8.53-6.89-22.66,1.52-30.53C709,424,732.4,428.94,737.13,445c1,3.55.9,7.46,1.35,11.67H708.06c2.18,4.61,5.82,4.68,9.9,4.61m-2.1-13.55h5.06c-.81-4.29-3.51-5.81-7-5.66-3.26.13-5.89,1.6-6.18,5.66Z"/><path class="cls-6" d="M828.13,443.22c-4.72-1.15-9.06-2-13.25-.06,0,.47-.11.93-.17,1.4,1.72.48,3.42,1.05,5.16,1.41,3.75.77,7.63,1.09,11.26,2.22,4.48,1.4,7.62,4.42,8.31,9.39s-.77,9.36-4.9,12.53a15.67,15.67,0,0,1-3.77,2.28c-11.39,4.32-22.48,3-33.89-1.56,1.82-4.38,3.44-8.27,5.08-12.23,6.77,2.92,13.35,5.15,20.43,2.89.13-.48.27-1,.41-1.45-1.72-.51-3.42-1.16-5.18-1.52-3.75-.76-7.68-.94-11.28-2.12-9.68-3.17-11.87-14.9-4.1-21.58a17.85,17.85,0,0,1,6.09-3.5c9.95-3.1,19.75-2.28,29.8,1.59l-5,12.15C831.44,444.42,830,443.86,828.13,443.22Z"/><path class="cls-7" d="M581.76,432.23c1-1,1.94-2,2.93-2,4.88-.17,9.76-.07,15-.07v44H581.75C581.75,460.31,581.75,446.47,581.76,432.23Z"/><path class="cls-7" d="M863.13,439.8v34.3h-17.9V430.34h17.9Z"/><path class="cls-6" d="M843.46,414.9a12.48,12.48,0,0,1,17.89-4.49c4.35,3,4.87,9.66,1.06,13.55-3,3.08-9.64,4-14.06,1.85C844.17,423.82,842.79,420.89,843.46,414.9Z"/><path class="cls-6" d="M595.24,426.37c-3.65-.17-7.26.35-10.2-.81-6.3-2.48-7.11-10.56-1.89-14.8,3.78-3.07,11.42-3.14,15.35-.13a8.19,8.19,0,0,1,2.34,10.66C599.67,423.3,597.36,424.64,595.24,426.37Z"/></svg>