<svg id="Layer_1" data-name="Layer 1" xmlns="http://www.w3.org/2000/svg" viewBox="0 0 797.24 474.48"><defs><style>.cls-1{font-size:123.25px;font-family:Cairo-Black, Cairo;font-weight:800;}.cls-1,.cls-6{fill:#fff;}.cls-2{letter-spacing:0em;}.cls-3{letter-spacing:0em;}.cls-4{letter-spacing:-0.01em;}.cls-5{letter-spacing:0em;}</style></defs><text class="cls-1" transform="translate(130.88 444.21)"><tspan class="cls-2">A</tspan><tspan class="cls-3" x="74.2" y="0">ctiv</tspan><tspan class="cls-4" x="273.86" y="0">i</tspan><tspan x="308" y="0">t</tspan><tspan class="cls-5" x="353.97" y="0">i</tspan><tspan x="388.6" y="0">es</tspan></text><path class="cls-6" d="M550.65,213.22c.55,11.84-1,22-2.88,33.25,0,.34,0,.81-.47.87s-.58-.42-.63-.75c-4-23.55-16.62-48.32-40.95-56-33.65-10.19-62.94,17.31-68.24,49.06-.63,2-.17,10.46-2.69,6.66a176.62,176.62,0,0,0-21.5-24.62c-26.72-27-70-46.15-75.36-87.67-4.27-25.25,12.95-50,40.43-45.75,5-1.12-6.82-8-6.19-9.87,1.89-1.64,5.34-.47,7.53.18,23.82,5.24,50.37,25.11,44.62,52.32-.26,2.91-2,5.23-2.74,7.91-1.5,2.54-3.59-2.47-3.74-3.87-1.9-6.3-5.42-12.53-10.69-16.56-4.87-2.34-3,6.51-4.81,9-.32,1.83-6.19,10.75-7.81,8-.12-4.36,1.68-8.51.2-13-4.78-21-34.4-20-38.62.89-3.3,17,9.71,32,23.81,39.54,14.9,6.43,32.31,7,47.36.25,36.56-15.08,40.23-65.44,19.81-95a65.79,65.79,0,0,0-7.61-9.71c-3.4-5.48,9.35,1.06,10.78,1.91C510.3,84.67,551.78,148.67,550.65,213.22Z"/><path class="cls-6" d="M215.71,214.3c-1.73-68.53,44-135.15,108.61-157.94,1.85.07,3.66-2.9,5.33-1.23.63.8-.19,1.34-.67,1.85a76.26,76.26,0,0,0-9.77,93.26c27.14,43,79.72,63.42,106.42,106.93,23.46,38.85-1.64,91.1-50.08,83.53a54.26,54.26,0,0,1-25.24-12.32c-4.47-3.29-21.1-26.58-4.93-13.78,9.89,5.72,22.06,8.73,33.29,5.75.77-.19,1.68-.6,2.08.41s-.65,1-1.13,1.41a25.05,25.05,0,0,1-8.91,4.74c-.83.79-7.18,2-4.18,3.31,4.8,1.44,9.59,2.9,14.74,2.16,20-2.11,31.45-21.82,31.57-40.58-1.74-19.38-13-37.49-30.18-47-14-9.59-35.12-14.08-47.75,0-1.4.82-3.84,6.13-5,2.89a72.59,72.59,0,0,0-10.56-32.43c-25.91-41.13-76.71-31.56-93.78,11.75a207.94,207.94,0,0,0-4.9,21.34c-.25.48-.49,1.11-1.14,1C216.43,238.77,215.83,225.53,215.71,214.3Z"/></svg>