<svg id="Layer_1" data-name="Layer 1" xmlns="http://www.w3.org/2000/svg" viewBox="0 0 865.36 474.48"><defs><style>.cls-1{font-size:123.25px;font-family:Cairo-Black, Cairo;font-weight:800;}.cls-1,.cls-6{fill:#fff;}.cls-2{letter-spacing:0em;}.cls-3{letter-spacing:0em;}.cls-4{letter-spacing:0.01em;}.cls-5{letter-spacing:-0.01em;}</style></defs><text class="cls-1" transform="translate(99.48 434.67)"><tspan class="cls-2">B</tspan><tspan class="cls-3" x="73.95" y="0">oa</tspan><tspan class="cls-4" x="203.73" y="0">r</tspan><tspan class="cls-5" x="252.78" y="0">d</tspan><tspan x="320.94" y="0">Games</tspan></text><path class="cls-6" d="M503,180.41c6.86,12.79,13.29,25.81,19.75,38.8,4.8,9.66,9.76,19.28,13.91,29.22,4.87,11.66-.25,21.72-12.31,25.39q-31.9,9.74-63.86,19.25c-13.7,4.07-28.69-1.71-35.43-13.95-11.58-21-22.91-42.19-34.2-63.37a23.73,23.73,0,0,1-2.56-8.46c-.82-7.81,4.34-14.86,12.88-17.78q34.19-11.73,68.45-23.24a60,60,0,0,1,7.95-1.68C489.83,165.15,497.83,170.87,503,180.41Zm-14.21,23.9c1.47-3.64.28-8.14-3.2-11.39-4.54-4.25-9.87-6-15.94-4.08s-8.29,7.71-5.29,13.19a15.36,15.36,0,0,0,13.06,8.25C483.45,210.25,487.24,208,488.74,204.31Zm.65,38.8c-1.85,4.32-.2,8.08,2.83,11.16,4.25,4.33,9.49,6.13,15.49,4.64,7-1.73,9.46-8.67,5.4-14.63a16.79,16.79,0,0,0-14.29-7C495,237.43,491.21,238.84,489.39,243.11Zm-52.56-22c1.8-4.13.18-7.64-2.67-10.65-4.29-4.56-11.66-6-16.62-3.51-4.35,2.24-6,6.62-3.94,11.05,2.68,5.72,7.54,8.17,13.32,8.56C431.39,226.45,435,225.27,436.83,221.16Zm24.77,47.93c1.74-4,.12-7.45-2.59-10.44-4-4.36-10.64-6-15.81-4s-7.21,7-4.75,11.82c2.81,5.45,7.56,7.94,13.13,8.18C456.25,274.5,459.84,273.16,461.6,269.09Z"/><path class="cls-6" d="M516.52,118.63c4.59-8.18,11.34-8.06,16.26,0a22.34,22.34,0,0,1,1.15,2.23q1.83,3.77,3.64,7.54c8.33,17.36,16.84,34.64,24.92,52.12,3.82,8.27,7,16.91,7,26.26,0,14.38-4.73,27.38-12,39.59A15,15,0,0,1,554.4,250c-2.59,2.27-5.54,2.54-8.11.27a22.48,22.48,0,0,1-5.17-6.44c-10.59-20.81-21-41.71-31.5-62.57-3.41-6.78-6.64-13.59-6.26-17.92C504,144.82,509.36,131.4,516.52,118.63ZM540.44,192c3.73-4.49-1.07-20.22-6.93-22.68C530.12,174.07,534.7,189.05,540.44,192Z"/><path class="cls-6" d="M389.79,177.07a15.17,15.17,0,0,1,1.53-3c4.93-7.55,9.6-15.3,14.93-22.57a65,65,0,0,1,28.81-22.27c17.65-6.94,35.58-13.19,53.46-19.51a169.59,169.59,0,0,1,18.73-5.39c4.52-1,5.92.85,4.59,5.24a14.66,14.66,0,0,1-.56,1.57c-3,7.2-6,14.43-9.17,21.57a29.8,29.8,0,0,1-3.78,6.16c-7.8,10-18.13,16.61-29.76,21-18.89,7.09-38,13.63-57.06,20.26-5.34,1.85-10.86,3.18-14.62,4.27C390.19,184.63,388.07,181.7,389.79,177.07Zm54.34-42.21c-4.33-1.74-17.73,5.21-20.28,10.68C429.89,146,441.14,140,444.13,134.86Zm35.16,8.4c-5.44-1-17.89,5.62-20.06,10.68C464.57,155,477.06,148.33,479.29,143.26Zm-38.48,6.53c4.64,1.38,16.44-4.61,20.43-10.51C455.91,138.1,443.72,144.46,440.81,149.79Z"/><path class="cls-6" d="M311.13,104.41c3.67,1.19,7.56,1.94,11,3.66,16.78,8.44,33.46,17.1,50.12,25.8a90.57,90.57,0,0,1,12.93,7.67c7.05,5.33,8.39,14.53,3.25,21.36-11.25,14.94-22.68,29.76-34.08,44.58-3.51,4.56-8.35,7.14-14,6.91-5.23-.21-10.83-.53-15.54-2.52-15.91-6.76-31.54-14.21-47.18-21.58a73.59,73.59,0,0,1-12-7,15.1,15.1,0,0,1-3.69-20.7c11.24-16.66,22.63-33.22,34-49.78a17.18,17.18,0,0,1,15-7.71ZM302,180.1c-.15,4.12,4,7.84,9.29,8.22,5.55.41,10.48-3,10.69-7.49s-4.55-8.2-10.14-8.2C306.45,172.63,302.14,175.9,302,180.1ZM326,135c.08-4-4-7.66-9.14-8.08-5.68-.47-10.79,3.1-10.87,7.58s4.65,8.13,10.26,8.11C321.54,142.58,325.93,139.15,326,135Zm-45.29,34.77c-.23,4,3.48,7.57,8.58,8.28,5.61.79,11-2.71,11.34-7.29s-4.41-8.31-10.25-8.3C285.19,162.46,281,165.66,280.73,169.76Zm42.71,21.33c-.14,4,3.83,7.83,9.08,8a14.51,14.51,0,0,0,7.36-1.73c4.72-2.75,4.84-8.29.34-11.42-2-1.37-4.47-1.95-6.73-2.89C328,183.56,323.59,186.89,323.44,191.09Zm25.89-34.8c-.08,4.18,4.15,8.06,9.34,8a15.58,15.58,0,0,0,7.1-1.8,6.4,6.4,0,0,0,.89-10.93c-2.07-1.63-4.85-2.36-7.32-3.49C353.79,148.7,349.4,152.13,349.33,156.29Zm-21.72-10.87c0,4.43,4.78,8.21,10.31,8.11,5.35-.09,9.62-3.58,9.57-7.82s-4.49-7.86-9.87-7.9C332.07,137.76,327.63,141.13,327.61,145.42Z"/><path class="cls-6" d="M308.22,71.72c.66-5.72,1-11.51,2.08-17.15,1.54-7.89,5.55-9.67,12.7-6.23,12.24,5.88,24.59,11.55,36.69,17.72,8.6,4.38,17,9.14,25.21,14.28A28.34,28.34,0,0,1,397,94.88c3.92,11.07,4.7,22.57,4.68,34.13,0,5.62-3.46,8.44-9,7.5a41.2,41.2,0,0,1-11.88-3.72q-21-10.81-41.57-22.29c-7.07-3.92-14-8.1-20.69-12.66-7.58-5.17-11-12.67-10.29-21.9.1-1.39.16-2.79.24-4.18Zm63.33,15.09c1.57,4.14,9.34,9.4,13.78,9.23,2-.07,2.67-.93,1.89-2.89-1.62-4-9.17-9.11-13.59-9.06C371.78,84.12,370.75,84.69,371.55,86.81ZM325.46,90.3A17.4,17.4,0,0,0,338.64,99c2.4.32,3.11-.86,2.17-3-1.77-4-9.15-8.88-13.44-8.86C325,87.16,324.22,88.19,325.46,90.3Z"/><path class="cls-6" d="M303.63,70.82c-1,13.22-3.6,26.07-10.59,37.5-7.13,11.66-14.75,23-22.23,34.45-4.37,6.69-8.8,13.35-13.42,19.87-.88,1.26-2.8,1.78-4.24,2.64-.6-1.57-1.73-3.15-1.71-4.72.06-5,.35-10,.91-15,1.54-13.72,3.44-27.38,11-39.42q15.81-25.31,31.84-50.48a11.88,11.88,0,0,1,3.64-3.37c2.36-1.49,4.22-.8,4.86,1.91a46.15,46.15,0,0,1,.77,6.23C304.1,64.7,303.87,67.76,303.63,70.82Zm-34.5,60.46-1.16-.63-7,13.14,1.12.6Q265.61,137.84,269.13,131.28Zm23.77-35-1.14-.61-6.92,12.9,1.17.69Zm-28.82,20.07,1.19.62L272,104.22l-1.28-.46Q267.4,110,264.08,116.33ZM295,70.07l-1.12-.6L287.05,82.1l1.25.6Q291.65,76.38,295,70.07Z"/></svg>