<svg id="Layer_1" data-name="Layer 1" xmlns="http://www.w3.org/2000/svg" viewBox="0 0 828.21 474.48"><defs><style>.cls-1{font-size:123.25px;font-family:Cairo-Black, Cairo;font-weight:800;}.cls-1,.cls-3{fill:#fff;}.cls-2{letter-spacing:0em;}</style></defs><text class="cls-1" transform="translate(170.97 447.58)">Schedu<tspan class="cls-2" x="395.02" y="0">l</tspan><tspan x="431" y="0">e</tspan></text><path class="cls-3" d="M320.12,147.17c.41-3.06.73-6.14,1.23-9.18,2.45-14.62,8.31-27.9,16.17-40.36,11.37-18,25.88-33.33,41.9-47.26A301.44,301.44,0,0,1,414,24.4a2.49,2.49,0,0,1,3.15,0C440.3,39.5,461.41,57,479.31,78.16c11,13,20.2,27.09,26.07,43.18a90.4,90.4,0,0,1,5.23,23,16.27,16.27,0,0,0,.34,1.8V342.39H320.12Zm184.56,188.9v-2.33q0-90.92,0-181.83a81.08,81.08,0,0,0-4.11-25.25c-5-15.51-13.53-29.07-23.75-41.6-17.14-21-37.64-38.3-60-53.41a2,2,0,0,0-2.68.15,294.17,294.17,0,0,0-43.88,35.68c-13.35,13.25-25.19,27.67-33.68,44.59-6.18,12.3-10.1,25.2-10.11,39.08q0,91.51,0,183c0,1.61.52,1.93,2,1.93q86.94-.06,173.88,0Z"/><path class="cls-3" d="M491.57,126.33a109.63,109.63,0,0,0-10.88-21.64c-2-3.12-4.12-6.15-6.36-9.13-1.36-1.82-2.78-3.62-4.23-5.41q-3.93-4.84-8.14-9.41c-2.07-2.26-4.2-4.47-6.36-6.65a266.21,266.21,0,0,0-20-18c-5.19-4.23-10.57-8.23-16.2-12.61V327.6h2.62q35.86,0,71.72,0c2.49,0,2.49,0,2.49-2.47q0-86.67,0-173.35A73.79,73.79,0,0,0,491.57,126.33ZM490,319c0,2.37,0,2.37-2.38,2.37H427.76c-2.2,0-2.21,0-2.21-2.2V56.59l.55-.24c4.25,3.56,8.55,7.06,12.72,10.68.24.21.48.43.73.63,1.43,1.26,2.86,2.53,4.27,3.82,4.07,3.7,8,7.53,11.78,11.5,2.17,2.3,4.3,4.63,6.36,7,3.66,4.25,7.12,8.66,10.36,13.28.68,1,1.36,2,2,3a114.47,114.47,0,0,1,6.36,10.61,79,79,0,0,1,7.64,20.65A69.94,69.94,0,0,1,490,151.92Q490.12,235.47,490,319Z"/><path class="cls-3" d="M411.7,43.82V327.49H335c-.05-.59-.12-1.13-.12-1.67q0-87.7,0-175.43c0-12.86,4-24.73,9.89-36,9.25-17.73,22.26-32.48,36.71-46.07a294.93,294.93,0,0,1,28.73-23.59C410.68,44.44,411.11,44.2,411.7,43.82Zm-6.26,277.59V56.23c-.43.31-.66.44-.87.62-6.88,5.91-13.95,11.62-20.58,17.8-12.25,11.42-23.16,24-31.54,38.63A82.85,82.85,0,0,0,341,155.65c.24,54.52.1,109,.1,163.58,0,2.17,0,2.17,2.23,2.18h62.11Z"/><rect class="cls-3" x="437.46" y="65.09" width="6.37" height="256.32"/><path class="cls-3" d="M462,80.74V321.4H455.6V74.09C457.76,76.27,459.89,78.48,462,80.74Z"/><path class="cls-3" d="M480.69,104.69V321.4h-6.36V95.56C476.57,98.54,478.7,101.57,480.69,104.69Z"/><rect class="cls-3" x="388.47" y="62.76" width="6.37" height="258.64" transform="translate(783.31 384.17) rotate(180)"/><path class="cls-3" d="M370.34,80.74V321.4h6.36V74.09C374.54,76.27,372.41,78.48,370.34,80.74Z"/><path class="cls-3" d="M351.61,104.69V321.4H358V95.56C355.73,98.54,353.6,101.57,351.61,104.69Z"/></svg>